<svg xmlns="http://www.w3.org/2000/svg" viewBox="0 0 512 512" width="512" height="512">
  <defs>
    <linearGradient id="bg" x1="0%" y1="0%" x2="100%" y2="100%">
      <stop offset="0%" stop-color="#4f46e5" />
      <stop offset="100%" stop-color="#a855f7" />
    </linearGradient>
    <filter id="glow">
      <feGaussianBlur stdDeviation="8" result="coloredBlur"/>
      <feMerge>
        <feMergeNode in="coloredBlur"/>
        <feMergeNode in="SourceGraphic"/>
      </feMerge>
    </filter>
  </defs>
  <!-- Background -->
  <rect width="512" height="512" rx="112" fill="url(#bg)" />
  
  <!-- Crescent Moon -->
  <path d="M336 344c-70.69 0-128-57.31-128-128 0-31.14 11.23-59.62 30-81.82-74.05 10.55-130 74.2-130 151.82 0 83.95 68.05 152 152 152 77.62 0 141.27-55.95 151.82-130-22.2 18.77-50.68 30-81.82 30z" 
        fill="#ffffff" 
        opacity="0.95" 
        filter="url(#glow)"/>

  <!-- Star -->
  <path d="M256 128l16 48 48 16-48 16-16 48-16-48-48-16 48-16z" 
        fill="#fcd34d" 
        filter="url(#glow)" />
  <path d="M368 180l10 30 30 10-30 10-10 30-10-30-30-10 30-10z" 
        fill="#fde68a" 
        opacity="0.8" 
        filter="url(#glow)" />
</svg>
