<svg xmlns="http://www.w3.org/2000/svg" viewBox="0 0 512 512" width="512" height="512" role="img" aria-label="Lamim logo">
  <defs>
    <linearGradient id="tile" x1="70" y1="42" x2="448" y2="470" gradientUnits="userSpaceOnUse">
      <stop offset="0" stop-color="#0f2a2d"/>
      <stop offset="0.52" stop-color="#09141d"/>
      <stop offset="1" stop-color="#020409"/>
    </linearGradient>
    <radialGradient id="aura" cx="0" cy="0" r="1" gradientUnits="userSpaceOnUse" gradientTransform="translate(168 132) rotate(46) scale(350)">
      <stop offset="0" stop-color="#2dd4bf" stop-opacity="0.62"/>
      <stop offset="0.44" stop-color="#14b8a6" stop-opacity="0.2"/>
      <stop offset="1" stop-color="#14b8a6" stop-opacity="0"/>
    </radialGradient>
    <linearGradient id="gold" x1="128" y1="108" x2="394" y2="412" gradientUnits="userSpaceOnUse">
      <stop offset="0" stop-color="#fff3b0"/>
      <stop offset="0.42" stop-color="#f7c948"/>
      <stop offset="1" stop-color="#c58a1f"/>
    </linearGradient>
    <linearGradient id="ink" x1="176" y1="132" x2="330" y2="368" gradientUnits="userSpaceOnUse">
      <stop offset="0" stop-color="#ffffff"/>
      <stop offset="1" stop-color="#d9fffa"/>
    </linearGradient>
    <filter id="softShadow" x="-30%" y="-30%" width="160%" height="160%">
      <feDropShadow dx="0" dy="18" stdDeviation="18" flood-color="#000000" flood-opacity="0.38"/>
    </filter>
    <filter id="markGlow" x="-35%" y="-35%" width="170%" height="170%">
      <feGaussianBlur stdDeviation="7" result="blur"/>
      <feColorMatrix in="blur" type="matrix" values="0 0 0 0 0.17 0 0 0 0 0.83 0 0 0 0 0.75 0 0 0 .55 0" result="glow"/>
      <feMerge>
        <feMergeNode in="glow"/>
        <feMergeNode in="SourceGraphic"/>
      </feMerge>
    </filter>
  </defs>

  <rect width="512" height="512" rx="116" fill="url(#tile)"/>
  <rect width="512" height="512" rx="116" fill="url(#aura)"/>
  <path d="M91 392c64 68 197 85 292 18 83-59 104-171 53-262" fill="none" stroke="#ffffff" stroke-opacity="0.08" stroke-width="2"/>
  <path d="M72 128c69-59 191-68 282-8" fill="none" stroke="#2dd4bf" stroke-opacity="0.18" stroke-width="2"/>

  <g filter="url(#softShadow)">
    <path d="M355 111c-89 0-161 72-161 161 0 58 31 109 78 137-86-7-154-79-154-167 0-93 75-168 168-168 25 0 49 5 69 16z" fill="url(#gold)"/>
    <path d="M203 149v201h125" fill="none" stroke="#071216" stroke-opacity="0.38" stroke-width="74" stroke-linecap="round" stroke-linejoin="round"/>
    <path d="M203 149v201h125" fill="none" stroke="url(#ink)" stroke-width="50" stroke-linecap="round" stroke-linejoin="round" filter="url(#markGlow)"/>
    <path d="M274 169l21 42 47 7-34 33 8 47-42-22-42 22 8-47-34-33 47-7z" fill="#2dd4bf"/>
    <path d="M382 300l12 24 27 4-20 19 5 27-24-13-24 13 5-27-20-19 27-4z" fill="#f9d76a"/>
  </g>

  <circle cx="143" cy="145" r="9" fill="#2dd4bf"/>
  <circle cx="393" cy="140" r="6" fill="#f9d76a"/>
  <circle cx="136" cy="380" r="6" fill="#e6fffb" opacity="0.9"/>
</svg>
