<svg xmlns="http://www.w3.org/2000/svg" viewBox="0 0 512 512" width="512" height="512" role="img" aria-label="Lamim logo">
  <defs>
    <linearGradient id="tile" x1="56" y1="34" x2="456" y2="482" gradientUnits="userSpaceOnUse">
      <stop offset="0" stop-color="#fff6e2"/>
      <stop offset="0.58" stop-color="#fffdf4"/>
      <stop offset="1" stop-color="#ffe1b7"/>
    </linearGradient>
    <radialGradient id="sky" cx="0" cy="0" r="1" gradientUnits="userSpaceOnUse" gradientTransform="translate(254 204) rotate(90) scale(186)">
      <stop offset="0" stop-color="#fff8b7"/>
      <stop offset="0.48" stop-color="#b9f0dc"/>
      <stop offset="1" stop-color="#7fd5ef"/>
    </radialGradient>
    <linearGradient id="gold" x1="184" y1="102" x2="336" y2="314" gradientUnits="userSpaceOnUse">
      <stop offset="0" stop-color="#ffe978"/>
      <stop offset="0.52" stop-color="#f8bd25"/>
      <stop offset="1" stop-color="#e88416"/>
    </linearGradient>
    <linearGradient id="coral" x1="124" y1="270" x2="388" y2="398" gradientUnits="userSpaceOnUse">
      <stop offset="0" stop-color="#ff876f"/>
      <stop offset="1" stop-color="#ee5f5e"/>
    </linearGradient>
    <linearGradient id="door" x1="219" y1="320" x2="293" y2="412" gradientUnits="userSpaceOnUse">
      <stop offset="0" stop-color="#283186"/>
      <stop offset="1" stop-color="#101947"/>
    </linearGradient>
    <linearGradient id="leaf" x1="82" y1="292" x2="172" y2="428" gradientUnits="userSpaceOnUse">
      <stop offset="0" stop-color="#a4d92f"/>
      <stop offset="1" stop-color="#1d7f3e"/>
    </linearGradient>
    <filter id="shadow" x="-20%" y="-20%" width="140%" height="150%">
      <feDropShadow dx="0" dy="16" stdDeviation="16" flood-color="#794112" flood-opacity="0.16"/>
    </filter>
    <filter id="softGlow" x="-25%" y="-25%" width="150%" height="150%">
      <feGaussianBlur stdDeviation="8" result="blur"/>
      <feColorMatrix in="blur" type="matrix" values="0 0 0 0 1 0 0 0 0 .74 0 0 0 0 .18 0 0 0 .42 0" result="glow"/>
      <feMerge>
        <feMergeNode in="glow"/>
        <feMergeNode in="SourceGraphic"/>
      </feMerge>
    </filter>
  </defs>

  <rect width="512" height="512" rx="114" fill="url(#tile)"/>
  <circle cx="256" cy="214" r="162" fill="url(#sky)"/>
  <circle cx="144" cy="165" r="5" fill="#ffffff" opacity="0.86"/>
  <path d="M151 154l4 10 10 4-10 4-4 10-4-10-10-4 10-4zM382 181l3 7 8 3-8 3-3 8-3-8-8-3 8-3z" fill="#ffffff" opacity="0.9"/>

  <g filter="url(#shadow)">
    <g fill="url(#gold)">
      <path d="M161 137c0-22 19-29 26-49 7 20 26 27 26 49v136h-52z"/>
      <path d="M299 137c0-22 19-29 26-49 7 20 26 27 26 49v136h-52z"/>
      <path d="M185 246c10-50 47-79 71-88 24 9 61 38 71 88v53H185z" filter="url(#softGlow)"/>
      <circle cx="256" cy="154" r="10" fill="#f5a900"/>
    </g>
    <path d="M155 138h64v19h-64zM151 198h72v18h-72zM151 250h72v18h-72zM293 138h64v19h-64zM289 198h72v18h-72zM289 250h72v18h-72z" fill="#e79016" opacity="0.82"/>
    <path d="M166 96c-15 3-29-5-35-18 17 5 32-6 36-24 8 16 5 32-1 42zM304 96c15 3 29-5 35-18-17 5-32-6-36-24-8 16-5 32 1 42z" fill="#f4b000"/>

    <path d="M128 268h256c12 0 22 10 22 22v116H106V290c0-12 10-22 22-22z" fill="url(#coral)"/>
    <path d="M111 267h290c10 0 18 8 18 18v12c0 10-8 18-18 18H111c-10 0-18-8-18-18v-12c0-10 8-18 18-18z" fill="#ff786d"/>
    <path d="M209 406v-54c0-35 25-64 47-78 22 14 47 43 47 78v54z" fill="url(#door)"/>
    <path d="M196 406v-57c0-43 32-74 60-91 28 17 60 48 60 91v57" fill="none" stroke="#a94d45" stroke-width="9" stroke-linecap="round"/>
    <path d="M123 341h46M184 338h26M323 341h58M134 365h34M190 366h20M325 365h45M146 388h72M310 388h56" stroke="#b94c43" stroke-width="5" stroke-linecap="round" opacity="0.46"/>
    <path d="M153 294h54M226 292h27M278 292h75M165 322h52M288 323h66" stroke="#f99772" stroke-width="5" stroke-linecap="round" opacity="0.78"/>
  </g>

  <g filter="url(#shadow)">
    <path d="M89 407c22-23 53-27 88-16 18 6 40 5 63-1-22 28-58 43-111 41-25-1-40-7-40-24z" fill="#c49317" opacity="0.72"/>
    <path d="M344 391c32-12 62-7 84 16 0 17-15 23-40 24-53 2-89-13-111-41 25 6 47 7 67 1z" fill="#c49317" opacity="0.72"/>
    <path d="M94 368c29-18 56-5 70 24-34 12-62 8-84-10zM130 337c28 0 45 23 41 59-35-7-55-27-59-58zM179 350c18 21 13 52-15 72-19-26-19-54 0-78z" fill="url(#leaf)"/>
    <path d="M73 337c24 5 39 29 32 55-30-4-49-23-55-50zM413 368c-29-18-56-5-70 24 34 12 62 8 84-10zM377 337c-28 0-45 23-41 59 35-7 55-27 59-58zM328 350c-18 21-13 52 15 72 19-26 19-54 0-78zM434 337c-24 5-39 29-32 55 30-4 49-23 55-50z" fill="url(#leaf)"/>
    <path d="M118 399c18-22 37-35 58-45M392 399c-18-22-37-35-58-45" stroke="#176b36" stroke-width="5" stroke-linecap="round" opacity="0.62"/>
  </g>
</svg>
